<svg width="1000" height="30" viewBox="0 0 1000 30" xmlns="http://www.w3.org/2000/svg">
  <path
    d="M0,15 C10,18 15,8 25,12 C40,16 45,22 60,15 C75,8 80,5 95,10 C110,15 115,25 135,18 C155,11 165,6 180,12 C195,18 200,24 220,15 C240,6 245,8 260,14 C275,20 285,26 305,18 C325,10 335,5 350,12 C365,19 375,25 395,15 C415,5 425,8 440,14 C455,20 465,22 485,15 C505,8 515,6 530,10 C545,14 555,24 575,18 C595,12 605,5 620,12 C635,19 645,25 665,18 C685,11 695,6 710,12 C725,18 735,26 755,18 C775,10 785,5 800,12 C815,19 825,24 845,15 C865,6 875,8 890,14 C905,20 915,26 935,18 C955,10 965,5 980,12 C995,19 998,15 1000,15 L1000,30 L0,30 Z"
    fill="black"
  />
</svg>