<svg width="1000" height="40" viewBox="0 0 1000 40" xmlns="http://www.w3.org/2000/svg">
  <path d="M0,20 C10,25 15,10 25,15 C40,22 45,30 60,20 C75,10 80,5 95,12 C110,20 115,35 135,25 C155,15 165,8 180,16 C195,25 200,32 220,20 C240,8 245,10 260,18 C275,26 285,34 305,25 C325,16 335,8 350,18 C365,28 375,34 395,20 C415,6 425,10 440,18 C455,26 465,30 485,20 C505,10 515,8 530,14 C545,20 555,32 575,25 C595,18 605,8 620,18 C635,28 645,34 665,25 C685,16 695,8 710,18 C725,28 735,36 755,25 C775,14 785,8 800,18 C815,28 825,34 845,20 C865,6 875,10 890,18 C905,26 915,34 935,25 C955,16 965,8 980,18 C995,28 998,20 1000,20 L1000,0 L0,0 Z" fill="black"/>
</svg>