<svg width="1920" height="150" viewBox="0 0 1920 150" preserveAspectRatio="none" fill="none" xmlns="http://www.w3.org/2000/svg">
<path d="M0 0H203V109.415C203 109.415 192.5 111.914 182.5 109.415C172.5 106.917 156.5 93.4278 145 95.4263C133.5 97.4248 138.5 98.9236 126.5 101.422C114.5 103.92 110 89.4309 93 95.4263C76 101.422 44.5 105.419 40 104.419C35.5 103.42 36 104.419 23.5 101.422C11 98.424 0 101.422 0 101.422V0Z" fill="black"/>
<path d="M406 0H609L610.5 126.402C610.5 126.402 589.5 136.395 571.5 134.396C553.5 132.398 531.5 130.899 522 134.396C512.5 137.894 493 151.383 484.5 149.884C476 148.385 470 145.887 462 144.388C454 142.89 432.5 141.89 426.5 143.389C420.5 144.888 413 149.884 406 149.884V0Z" fill="black"/>
<path d="M203 0H406.001V149.884C406.001 149.884 401.501 149.884 394.501 147.886C387.5 145.887 367.001 131.399 361.001 129.4C355 127.402 334.001 127.901 330.001 127.402C326 126.902 307.501 123.904 303 122.905C298.5 121.906 281.501 116.91 277.5 114.911C273.5 112.913 263.501 115.91 258 114.911C252.5 113.912 244.501 107.917 240 105.918C235.5 103.92 212 107.417 203 109.415C194 111.414 203 0 203 0Z" fill="black"/>
<path d="M608 0H909L1006 77.9398C1006 77.9398 982.5 72.9437 970.5 81.4371C958.5 89.9305 943 104.919 934.5 101.921C926 98.9236 922.5 102.921 918 101.422C913.5 99.9228 912 100.422 903.5 100.422C895 100.422 844.5 115.411 823.5 109.415C802.5 103.42 777.5 104.919 761 109.415C744.5 113.912 726.5 134.896 709 134.896C691.5 134.896 683.5 112.413 663.5 114.412C643.5 116.41 607.5 126.402 607.5 127.402C607.5 128.401 608 0 608 0Z" fill="black"/>
<path d="M871 0H1920V113.412C1920 113.412 1919 116.91 1912 114.412C1905 111.914 1881.5 103.42 1875.5 101.921C1869.5 100.422 1861.5 100.922 1856 104.919C1850.5 108.916 1848 110.415 1840 115.91C1832 121.406 1811.5 115.91 1811.5 115.91C1811.5 115.91 1776 103.42 1759 95.9259C1742 88.4317 1689.5 94.4271 1677 95.9259C1664.5 97.4248 1626 109.915 1626 109.915C1626 109.915 1551 140.891 1536 141.391C1521 141.89 1512.5 129.4 1505.5 129.9C1498.5 130.399 1496 132.398 1486.5 130.399C1477 128.401 1469.5 122.405 1461 122.905C1452.5 123.405 1448.5 125.403 1437 121.906C1425.5 118.409 1423.5 111.914 1416.5 108.416C1409.5 104.919 1391.5 99.4232 1374.5 99.4232C1357.5 99.4232 1330.5 109.915 1315.5 107.417C1300.5 104.919 1292.5 88.9313 1284.5 86.4332C1276.5 83.9352 1253.5 75.4417 1224 71.4448C1194.5 67.4479 1181.5 86.4332 1164.5 85.434C1147.5 84.4348 1142 66.9483 1125 67.9475C1108 68.9468 1100.5 68.9468 1087 74.4425C1073.5 79.9383 1041 87.9321 1026.5 83.4356C1012 78.939 1002.5 76.9406 1002.5 76.9406L871 0Z" fill="black"/>
</svg>
