<svg width="1920" height="150" viewBox="0 0 1920 150" preserveAspectRatio="none" fill="none" xmlns="http://www.w3.org/2000/svg">
<path d="M0 54.3126C0 54.3126 26 45.295 36.5 45.295C47 45.295 47 39.2832 56.5 40.2852C66 41.2871 68.5 51.8077 82.5 50.8058C96.5 49.8038 106.5 37.2793 114.5 34.7744C122.5 32.2695 146.5 25.7567 163 34.7744C179.5 43.792 176.5 53.8117 197.5 58.8215C218.5 63.8313 221.5 61.8274 227.5 60.8254C233.5 59.8234 236.5 55.3146 240.5 56.3166C244.5 57.3185 245 62.3283 251.5 66.3362C258 70.344 289 73.8509 300.5 73.8509C312 73.8509 370 61.8274 387 56.3166C404 50.8058 446 75.1868 466 71.847C486 68.5071 480 67.3381 492 68.3401C504 69.3421 523.5 78.8607 538 71.847C552.5 64.8332 565 57.8195 579 56.3166C593 54.8136 613 60.8254 631.5 58.8215C650 56.8175 684.5 51.8077 694 45.796C703.5 39.7842 743 36.2773 758 25.2557C773 14.2342 810 2.21062 810 2.21062C810 2.21062 838 -1.29625 846 3.21258C854 7.72141 856 2.7116 869 0.206693C882 -2.29821 913.5 18.743 930 21.2479C946.5 23.7528 946 29.7646 952 31.7685C958 33.7724 966.5 26.2577 980 26.2577C993.5 26.2577 1008 31.7685 1019 31.7685C1030 31.7685 1050.5 24.2538 1063 24.2538C1075.5 24.2538 1091 28.7626 1101.5 24.2538C1112 19.7449 1117 10.7273 1124.5 16.2381C1132 21.7489 1151 42.2891 1160 43.2911C1169 44.293 1171.5 60.3244 1186 59.3224C1200.5 58.3205 1230.5 55.3146 1255 43.2911C1279.5 31.2675 1281 32.2695 1295.5 30.2655C1310 28.2616 1300 42.7901 1320 46.7979C1340 50.8058 1352 38.2812 1360.5 38.7822C1369 39.2832 1383.5 45.796 1397.5 42.2891C1411.5 38.7822 1412 34.7744 1425 34.7744C1438 34.7744 1440.5 51.3068 1457 50.3048C1473.5 49.3028 1509.5 62.8293 1516.5 60.3244C1523.5 57.8195 1591 61.3264 1606.5 57.3185C1622 53.3107 1637.5 39.2832 1645 43.2911C1652.5 47.2989 1668.5 28.2616 1679.5 32.2695C1690.5 36.2773 1693.5 18.242 1702.5 17.24C1711.5 16.2381 1733 31.2675 1745 31.2675C1757 31.2675 1777 16.2381 1789.5 18.743C1802 21.2479 1796 36.7783 1809 38.7822C1822 40.7861 1837 23.7528 1863 26.7587C1889 29.7646 1920 34.7744 1920 34.7744V150H659H0V54.3126Z" fill="black"/>
</svg>
